<?xml version="1.0" encoding="UTF-8" standalone="no"?>
<svg
   version="1.1"
   viewBox="-5.0 -10.0 110.0 135.0"
   id="svg14"
   sodipodi:docname="consumables.svg"
   inkscape:version="1.2.2 (b0a8486541, 2022-12-01)"
   xmlns:inkscape="http://www.inkscape.org/namespaces/inkscape"
   xmlns:sodipodi="http://sodipodi.sourceforge.net/DTD/sodipodi-0.dtd"
   xmlns="http://www.w3.org/2000/svg"
   xmlns:svg="http://www.w3.org/2000/svg">
  <defs
     id="defs18" />
  <sodipodi:namedview
     id="namedview16"
     pagecolor="#ffffff"
     bordercolor="#000000"
     borderopacity="0.25"
     inkscape:showpageshadow="2"
     inkscape:pageopacity="0.0"
     inkscape:pagecheckerboard="0"
     inkscape:deskcolor="#d1d1d1"
     showgrid="false"
     inkscape:zoom="6.237037"
     inkscape:cx="54.994062"
     inkscape:cy="67.580166"
     inkscape:window-width="1854"
     inkscape:window-height="1011"
     inkscape:window-x="66"
     inkscape:window-y="32"
     inkscape:window-maximized="1"
     inkscape:current-layer="svg14" />
  <path
     d="m51.246 18.859c-0.089844 4.7734-1.9961 9.3438-5.3398 12.766-1.668 1.7031-3.4844 3.5625-5.1484 5.2656-3.9961 4.0898-6.2344 9.582-6.2344 15.297v36.699c0 5.8477 4.7422 10.59 10.59 10.59h25.273c5.8477 0 10.59-4.7422 10.59-10.59v-2.8086c0-0.86328-0.69922-1.5625-1.5625-1.5625-0.86328 0-1.5625 0.69922-1.5625 1.5625v2.8086c0 4.1211-3.3438 7.4648-7.4648 7.4648h-25.273c-4.125 0-7.4648-3.3438-7.4648-7.4648v-36.699c0-4.9023 1.918-9.6094 5.3438-13.113 1.668-1.7031 3.4844-3.5625 5.1484-5.2656 3.9023-3.9922 6.1289-9.3203 6.2305-14.895 0.015625-0.86328-0.67188-1.5742-1.5352-1.5898-0.86328-0.015625-1.5742 0.67188-1.5898 1.5352zm29.73 10.703v-10.676c0-0.86328-0.69922-1.5625-1.5625-1.5625-0.86328 0-1.5625 0.69922-1.5625 1.5625v10.676c0 0.86328 0.69922 1.5625 1.5625 1.5625 0.86328 0 1.5625-0.69922 1.5625-1.5625z"
     fill-rule="evenodd"
     id="path2" />
  <path
     d="m54.375 17.324v-8.3516c0-1.4141 0.55859-2.7656 1.5586-3.7656 1-0.99609 2.3516-1.5586 3.7656-1.5586h12.824c2.9414 0 5.3242 2.3828 5.3242 5.3242v8.3516h-16.219c-0.86328 0-1.5625 0.69922-1.5625 1.5625s0.69922 1.5625 1.5625 1.5625h17.781c0.86328 0 1.5625-0.69922 1.5625-1.5625v-9.9141c0-4.668-3.7852-8.4492-8.4492-8.4492h-12.824c-2.2422 0-4.3906 0.89062-5.9766 2.4766-1.5859 1.5859-2.4766 3.7344-2.4766 5.9766v9.5391c0 0.11719 0 0.23047-0.003906 0.34766-0.007813 0.41797 0.15234 0.82422 0.44531 1.1211 0.29297 0.30078 0.69531 0.46875 1.1133 0.46875h3.5625c0.86328 0 1.5625-0.69922 1.5625-1.5625s-0.69922-1.5625-1.5625-1.5625h-1.9961z"
     fill-rule="evenodd"
     id="path4" />
  <path
     d="m66.516 52.184c-2.6016 5.3555-4.5352 10.645-4.5352 14.254 0 9.0625 7.7852 16.469 17.434 16.469 9.6484 0 17.43-7.4062 17.43-16.469 0-3.1133-1.4219-7.4648-3.4922-12.035-2.9688-6.5586-7.2266-13.605-9.9648-17.918-0.84766-1.3828-2.3516-2.2266-3.9766-2.2266-1.6289 0-3.1406 0.85156-3.9844 2.2422-1.6719 2.6328-3.9297 6.3125-6.1055 10.273-0.41406 0.75781-0.13672 1.707 0.61719 2.1211 0.75781 0.41406 1.707 0.13672 2.1211-0.61719 2.1445-3.9023 4.3633-7.5273 6.0195-10.129 0.007813-0.007813 0.011719-0.019532 0.019531-0.027344 0.27734-0.46094 0.77734-0.73828 1.3164-0.73828 0.53906 0 1.0352 0.28125 1.3125 0.73828 0.007813 0.007812 0.011719 0.019531 0.019532 0.027344 2.6797 4.2148 6.8555 11.117 9.7617 17.543 1.8516 4.0898 3.2148 7.9609 3.2148 10.746 0 7.3945-6.4375 13.344-14.305 13.344-7.8711 0-14.309-5.9492-14.309-13.344 0-3.2734 1.8594-8.0312 4.2188-12.887 0.37891-0.77734 0.054687-1.7109-0.72266-2.0898-0.77734-0.37891-1.7109-0.054688-2.0898 0.72266z"
     fill-rule="evenodd"
     id="path6" />
  <path
     d="m18.496 4.6055c-0.12109 0.25391-0.33984 0.45703-0.61719 0.55469-0.36719 0.10938-0.71484 0.23438-1.0586 0.37109-0.003906 0-0.003906 0-0.003906 0.003906-0.32422 0.13281-0.69141 0.097656-0.98047-0.085937-0.11719-0.074219-0.53906-0.42578-0.61328-0.48047-1.3242-0.95312-3.0781-1.0547-4.4922-0.28906-0.25 0.13281-1.0938 0.84766-1.2578 1.0469-0.92578 1.125-1.2031 2.6523-0.74609 4.0273 0.0625 0.19141 0.53125 1.125 0.59375 1.2461 0.09375 0.28125 0.070313 0.58984-0.070312 0.85156-0.027344 0.054688-0.60547 1.0273-0.625 1.0625-0.17969 0.30469-0.49609 0.49609-0.84766 0.52344-0.097656 0.007812-0.57812 0.007812-0.66797 0.015625-1.6953 0.11328-3.1562 1.2305-3.7227 2.8164-0.078125 0.22266-0.23438 1.1602-0.23438 1.3945-0.011719 1.7812 1.1016 3.4141 2.8203 4.0234 0.0625 0.027344 0.13672 0.054688 0.21484 0.082031 0.39062 0.125 0.67578 0.45703 0.74219 0.86328 0.042968 0.375 0.10547 0.73828 0.18359 1.1016 0 0.003906 0 0.003906 0.003907 0.003906 0.074218 0.35156-0.027344 0.71094-0.26953 0.96875-0.09375 0.10156-0.625 0.55859-0.72656 0.67188-1.0508 1.1484-1.3867 2.7891-0.87891 4.2578 0.085937 0.25391 0.71094 1.2852 0.93359 1.5195 1.0078 1.0664 2.5078 1.543 3.9531 1.2383 0.14062-0.027343 0.94922-0.28125 1.0664-0.32031 0.3125-0.050781 0.63672 0.039062 0.88281 0.24609 0.27344 0.26172 0.55859 0.5 0.85156 0.72656l0.003906 0.003906c0.30078 0.23438 0.45312 0.60547 0.41016 0.97656-0.011719 0.09375-0.10547 0.69922-0.11719 0.85156-0.089843 1.5117 0.63281 2.9492 1.8789 3.7812 0.27734 0.1875 1.5117 0.63281 1.8125 0.67188 1.2891 0.16797 2.5781-0.26562 3.5-1.1602 0.22266-0.21484 0.84766-1.1797 0.97266-1.332 0.20703-0.25391 0.51953-0.40234 0.85547-0.39844 0.37891 0.023438 0.75 0.023438 1.1172 0.011719h0.007813c0.27344-0.011719 0.53125 0.082031 0.73438 0.25 0.09375 0.13281 0.71875 1.0312 0.81641 1.1484 0.85547 1.0273 2.1445 1.5859 3.4648 1.5195 0.41797-0.019532 1.9648-0.58594 2.2773-0.80859 0.94141-0.67969 1.5586-1.7148 1.7148-2.8555 0.050782-0.37891-0.078125-1.5703-0.089844-1.7109-0.03125-0.35547 0.11328-0.70703 0.39063-0.93359 0.30469-0.22656 0.58984-0.46484 0.86719-0.71094 0-0.003906 0.003906-0.003906 0.003906-0.003906 0.23047-0.20703 0.53125-0.30469 0.83203-0.27344 0.14844 0.042969 1.2422 0.35156 1.4492 0.37891 1.3711 0.17969 2.7617-0.32031 3.6953-1.3516 0.20312-0.22266 0.80859-1.2969 0.89844-1.582 0.41406-1.3164 0.16016-2.7578-0.67188-3.8477-0.14844-0.19531-0.875-0.85156-0.99219-0.98828-0.21875-0.25-0.31641-0.58984-0.25391-0.92188 0.089844-0.36719 0.15234-0.73438 0.20703-1.1016v-0.007812c0.042968-0.32812 0.23828-0.61328 0.51953-0.78125 0.12109-0.050782 1.0117-0.43359 1.168-0.52344 1.207-0.71094 1.9922-1.9766 2.0859-3.3711 0.023438-0.33594-0.15234-1.4336-0.21875-1.6289-0.50781-1.5352-1.8516-2.6445-3.4492-2.8633-0.16016-0.023437-0.85937-0.035156-0.98437-0.046875-0.30078-0.03125-0.57813-0.18359-0.76172-0.42578-0.070313-0.11719-0.65234-1.1289-0.67969-1.1797-0.14844-0.28516-0.16016-0.61719-0.042969-0.91016 0.058594-0.14062 0.42578-0.80469 0.48438-0.95703 0.55469-1.3945 0.32422-2.9883-0.59375-4.168-0.18359-0.23438-1.0469-0.95703-1.2695-1.082-1.3828-0.78125-3.0977-0.72656-4.4258 0.15625-0.11328 0.074218-0.60547 0.47656-0.70312 0.54688-0.28906 0.19922-0.66406 0.24609-0.99609 0.12109-0.34766-0.15234-0.69531-0.27734-1.0508-0.39453-0.003906 0-0.003906 0-0.007813-0.003906-0.30469-0.097656-0.54687-0.32422-0.66797-0.61719-0.03125-0.13281-0.25781-1.082-0.31641-1.2422-0.47656-1.3164-1.5781-2.3125-2.9258-2.6602-0.33984-0.085938-1.7188-0.085938-2.0273-0.011719-1.1602 0.26953-2.1484 1.0195-2.7266 2.043-0.16016 0.28516-0.58203 1.7578-0.62891 1.9297zm4.6719-0.91406c0.31641 0.10547 0.57031 0.34375 0.69141 0.65234 0.03125 0.13281 0.26172 1.1016 0.32422 1.2734 0.44531 1.1797 1.4102 2.1172 2.6445 2.5156 0.25391 0.082032 0.51172 0.17578 0.76172 0.28516 0.011718 0.007812 0.027344 0.011719 0.039062 0.019531 1.3242 0.53906 2.8164 0.36719 3.9766-0.42578 0.09375-0.066407 0.55469-0.44531 0.66406-0.51953 0.33203-0.22266 0.76172-0.24219 1.1133-0.066407l0.42188 0.35547c0.21094 0.30469 0.25781 0.69922 0.12109 1.0508-0.058593 0.14844-0.41797 0.78906-0.47266 0.92578-0.46484 1.1406-0.41406 2.4375 0.16406 3.5391 0.035156 0.070313 0.80469 1.4141 0.88281 1.5234 0.70703 0.98828 1.8086 1.625 3.0156 1.7461 0.11328 0.011719 0.73047 0.011719 0.87109 0.03125 0.39844 0.054688 0.73828 0.32422 0.88672 0.69922l0.078124 0.53516c-0.039062 0.33594-0.23047 0.64062-0.51953 0.82031-0.12109 0.050781-0.98047 0.41797-1.1172 0.49609-1.1328 0.63672-1.9258 1.7734-2.1055 3.0938-0.039063 0.26562-0.085937 0.53516-0.14844 0.80078-0.003907 0.015625-0.007813 0.027343-0.007813 0.042969-0.28516 1.3242 0.082031 2.6836 0.95703 3.6758 0.09375 0.10547 0.77344 0.75 0.87891 0.84766 0.19141 0.26562 0.25391 0.60547 0.16797 0.92188l-0.29297 0.52734c-0.23828 0.23047-0.5625 0.34375-0.89062 0.30859-0.15234-0.042969-1.2422-0.35156-1.4414-0.37891-1.2109-0.16406-2.4492 0.20703-3.3828 1.0508-0.19922 0.17969-0.41016 0.35547-0.62891 0.51563-0.011718 0.007812-0.023437 0.019531-0.035156 0.027343-1.1367 0.88281-1.7383 2.2812-1.6133 3.6914l0.097656 1.0625c-0.046875 0.25391-0.17969 0.48437-0.37891 0.64844l-0.75 0.27344c-0.31641-0.007812-0.62109-0.15234-0.82812-0.40234-0.13281-0.16016-0.80859-1.1797-1.0508-1.4062-0.80469-0.74219-1.8828-1.1602-3.0156-1.1172-0.26562 0.007813-0.53906 0.007813-0.8125-0.007812-0.015625 0-0.027344-0.003907-0.042969-0.003907-1.3359-0.050781-2.5977 0.53516-3.4258 1.543-0.089844 0.11328-0.67578 0.96875-0.76562 1.0977-0.22266 0.19922-0.51953 0.30078-0.82031 0.27734l-0.60156-0.21875c-0.29297-0.22266-0.46094-0.58203-0.4375-0.95703 0.007812-0.12109 0.089844-0.60156 0.10156-0.67578 0.16797-1.4492-0.42969-2.8984-1.5977-3.8047-0.21094-0.16406-0.42188-0.33984-0.61719-0.52734-0.011718-0.011719-0.023437-0.019532-0.035156-0.03125-0.98828-0.89453-2.3281-1.2578-3.6094-1.0195-0.17969 0.035156-0.94531 0.29297-1.1055 0.32812-0.36328 0.074219-0.73828-0.035156-1-0.28906l-0.30859-0.50391c-0.10156-0.36719-0.007813-0.76953 0.25391-1.0547 0.097656-0.10938 0.60547-0.54297 0.69531-0.64062 0.94141-0.99609 1.3477-2.4023 1.0508-3.7695-0.054688-0.26172-0.10156-0.53125-0.13281-0.80469-0.003906-0.015625-0.003906-0.027343-0.007812-0.042969-0.21484-1.582-1.3086-2.9023-2.8125-3.4141-0.054688-0.027344-0.10938-0.046875-0.16797-0.066406-0.45703-0.14844-0.75781-0.56641-0.76953-1.0273l0.074218-0.45703c0.16016-0.39062 0.53125-0.66406 0.96094-0.69141 0.09375-0.007812 0.59766-0.011718 0.69531-0.019531 1.3594-0.10156 2.5938-0.85938 3.2969-2.0391 0.023437-0.042969 0.67187-1.1406 0.70703-1.2031 0.55859-1.0586 0.63672-2.3008 0.23438-3.4102-0.058594-0.15625-0.5-1.0391-0.56641-1.168-0.10156-0.33594-0.035157-0.70312 0.17578-0.98438l0.41406-0.34766c0.36328-0.17188 0.79688-0.13672 1.1289 0.10156 0.089843 0.066406 0.63281 0.5 0.77734 0.58984 1.1328 0.70703 2.5508 0.84375 3.8164 0.33203 0.24609-0.10156 0.50391-0.19531 0.76953-0.26953 0.015625-0.003906 0.027343-0.007813 0.042969-0.011719 1.168-0.375 2.0938-1.2305 2.5703-2.3203 0.082031-0.19141 0.44922-1.4766 0.50391-1.6641 0.14453-0.22266 0.36328-0.39062 0.61719-0.46484zm-3.2383 12.375c0.82422-0.55078 1.8164-0.86719 2.8828-0.86719 2.8828 0 5.2227 2.3398 5.2227 5.2227s-2.3398 5.2227-5.2227 5.2227-5.2227-2.3398-5.2227-5.2227c0-0.49609 0.070312-0.98047 0.19922-1.4336 0.23828-0.82812-0.24219-1.6953-1.0742-1.9297-0.82812-0.23828-1.6953 0.24219-1.9336 1.0742-0.20703 0.73047-0.32031 1.5-0.32031 2.293 0 4.6055 3.7422 8.3477 8.3477 8.3477 4.6055 0 8.3477-3.7422 8.3477-8.3477s-3.7383-8.3477-8.3477-8.3477c-1.707 0-3.2891 0.51172-4.6133 1.3906-0.71875 0.47656-0.91406 1.4492-0.4375 2.1641 0.47656 0.71875 1.4492 0.91406 2.168 0.4375zm-12.582 2.8242c0.027344 0.015625 0.054688 0.03125 0.082032 0.050781zm-0.066406-0.035156 0.035156 0.019531-0.03125-0.015625z"
     fill-rule="evenodd"
     id="path8" />
</svg>
